<?xml version="1.0" encoding="iso-8859-1"?>
<!-- Generator: Adobe Illustrator 19.0.0, SVG Export Plug-In . SVG Version: 6.00 Build 0)  -->
<svg version="1.1" id="Layer_1" xmlns="http://www.w3.org/2000/svg" xmlns:xlink="http://www.w3.org/1999/xlink" x="0px" y="0px"
	 viewBox="0 0 512 512" style="enable-background:new 0 0 512 512;" xml:space="preserve">
<path style="fill:#B4E66E;" d="M493.714,96H18.286C8.187,96,0,104.186,0,114.286v217.143c0,5.049,4.094,9.143,9.143,9.143H411.56
	c-2.545-3.358-3.223-7.945-1.213-11.969c2.813-5.639,9.688-7.951,15.33-5.112l36.571,18.286c3.875,1.938,6.322,5.894,6.322,10.224
	c0,4.33-2.447,8.286-6.321,10.223l-36.571,18.286c-1.634,0.817-3.384,1.21-5.098,1.21c-4.197,0-8.232-2.317-10.232-6.321
	c-2.011-4.024-1.333-8.611,1.213-11.969H9.143c-5.049,0-9.143,4.094-9.143,9.143v25.143C0,407.813,8.187,416,18.286,416h475.429
	c10.098,0,18.286-8.187,18.286-18.286V114.286C512,104.186,503.813,96,493.714,96z M109.714,212.571
	c6.312,0,11.429,5.117,11.429,11.429s-5.117,11.429-11.429,11.429H84.571v41.143h61.714c6.312,0,11.429,5.117,11.429,11.429
	c0,6.312-5.117,11.429-11.429,11.429h-64c-11.339,0-20.571-9.227-20.571-20.571V169.143c0-11.344,9.232-20.571,20.571-20.571h64
	c6.312,0,11.429,5.117,11.429,11.429c0,6.312-5.117,11.429-11.429,11.429H84.571v41.143H109.714z M283.59,281.358
	c3.661,5.138,2.473,12.272-2.661,15.942c-2.009,1.438-4.33,2.129-6.634,2.129c-3.562,0-7.08-1.661-9.312-4.786l-36.411-50.975
	l-36.41,50.975c-2.232,3.12-5.75,4.786-9.312,4.786c-2.304,0-4.616-0.691-6.634-2.129c-5.134-3.67-6.321-10.803-2.661-15.942
	L214.523,224l-40.969-57.358c-3.661-5.138-2.473-12.272,2.661-15.942c5.117-3.656,12.267-2.496,15.946,2.656l36.41,50.976
	l36.41-50.975c3.67-5.143,10.794-6.317,15.946-2.656c5.134,3.67,6.321,10.803,2.661,15.942L242.619,224L283.59,281.358z
	 M331.429,288c0,6.312-5.117,11.429-11.429,11.429s-11.429-5.117-11.429-11.429V160c0-6.312,5.117-11.429,11.429-11.429
	s11.429,5.117,11.429,11.429V288z M448,171.429h-34.286V288c0,6.312-5.117,11.429-11.429,11.429s-11.429-5.117-11.429-11.429
	V171.429h-34.286c-6.312,0-11.429-5.117-11.429-11.429c0-6.312,5.117-11.429,11.429-11.429H448c6.312,0,11.429,5.117,11.429,11.429
	C459.429,166.312,454.312,171.429,448,171.429z"/>
<g>
	<rect x="84.571" y="171.429" style="fill:#A0D755;" width="16" height="41.143"/>
	<rect x="84.571" y="235.429" style="fill:#A0D755;" width="16" height="41.143"/>
	<path style="fill:#A0D755;" d="M9.143,340.571h91.429v-41.143H82.286c-11.339,0-20.571-9.227-20.571-20.571V169.143
		c0-11.344,9.232-20.571,20.571-20.571h18.286v-34.286c0-10.099,8.187-18.286,18.286-18.286H18.286C8.187,96,0,104.186,0,114.286
		v217.143C0,336.478,4.094,340.571,9.143,340.571z"/>
	<path style="fill:#A0D755;" d="M100.571,397.714v-34.286H9.143c-5.049,0-9.143,4.094-9.143,9.143v25.143
		C0,407.813,8.187,416,18.286,416h100.571C108.759,416,100.571,407.813,100.571,397.714z"/>
</g>
<g>
</g>
<g>
</g>
<g>
</g>
<g>
</g>
<g>
</g>
<g>
</g>
<g>
</g>
<g>
</g>
<g>
</g>
<g>
</g>
<g>
</g>
<g>
</g>
<g>
</g>
<g>
</g>
<g>
</g>
</svg>
